<svg width="154" height="50" viewBox="0 0 154 50" fill="none" xmlns="http://www.w3.org/2000/svg">
<g clip-path="url(#clip0_196_455)">
<path d="M18.0843 0.55635C17.6793 1.07187 17.6215 3.80411 17.6215 24.9919C17.6215 50.9998 17.5636 49.9945 19.2123 49.9945C20.8609 49.9945 20.803 51.0256 20.803 24.8115C20.803 3.31437 20.7452 0.762557 20.3403 0.401695C19.7039 -0.191151 18.6049 -0.113823 18.0843 0.55635Z" fill="white"/>
<path d="M53.6887 0.452575C53.2259 0.890765 53.197 2.95284 53.197 24.8881C53.197 50.9991 53.1391 49.9938 54.7877 49.9938C56.4364 49.9938 56.3785 50.9991 56.3785 24.9912C56.3785 3.80344 56.3207 1.0712 55.9157 0.555678C55.3951 -0.140271 54.325 -0.191823 53.6887 0.452575Z" fill="white"/>
<path d="M9.29158 12.1553C8.79988 12.5935 8.79988 37.3899 9.29158 37.8281C9.78327 38.2663 10.8534 38.2148 11.374 37.725C11.779 37.3642 11.8368 35.8691 11.8368 25.0948C11.8368 17.1301 11.7211 12.6708 11.5476 12.3358C11.2005 11.7687 9.84112 11.6656 9.29158 12.1553Z" fill="white"/>
<path d="M62.4524 12.3358C62.2788 12.6708 62.1631 17.1301 62.1631 25.0948C62.1631 35.8691 62.221 37.3642 62.6259 37.725C63.1465 38.2148 64.2167 38.2663 64.7084 37.8281C65.2001 37.3899 65.2001 12.5935 64.7084 12.1553C64.1588 11.6656 62.7995 11.7687 62.4524 12.3358Z" fill="white"/>
<path d="M27.0793 13.5985C26.6455 14.0367 26.5876 15.1966 26.5876 25.043C26.5876 35.3276 26.6166 36.0235 27.1083 36.4102C27.7446 36.9257 28.6412 36.9772 29.1329 36.5391C29.6246 36.1009 29.6246 13.882 29.1329 13.4439C28.6123 12.9799 27.6 13.0572 27.0793 13.5985Z" fill="white"/>
<path d="M44.8671 13.4444C44.3754 13.8826 44.3754 36.1014 44.8671 36.5396C45.3877 37.0036 46.4 36.9262 46.9207 36.3849C47.3545 35.9467 47.4123 34.7868 47.4123 24.9147C47.4123 15.2745 47.3545 13.9084 46.9496 13.5475C46.429 13.0577 45.3588 13.0062 44.8671 13.4444Z" fill="white"/>
<path d="M0.585695 20.0174C-0.0216924 20.4556 -0.0506156 20.6361 0.036154 25.1211L0.122924 29.735L0.846004 30.07C1.42447 30.3278 1.68478 30.3278 2.14755 30.0443C2.69709 29.735 2.72601 29.3741 2.81278 25.0953C2.89955 20.6361 2.87063 20.4556 2.26324 20.0174C1.91616 19.7855 1.54016 19.5793 1.42447 19.5793C1.30877 19.5793 0.932773 19.7855 0.585695 20.0174Z" fill="white"/>
<path d="M36.1901 19.9913C35.5828 20.3779 35.5538 20.5326 35.5538 24.966C35.5538 29.8634 35.6406 30.147 37 30.147C38.3594 30.147 38.4462 29.8634 38.4462 24.966C38.4462 20.5326 38.4172 20.3779 37.8098 19.9913C37.4628 19.7593 37.0868 19.5789 37 19.5789C36.9132 19.5789 36.5372 19.7593 36.1901 19.9913Z" fill="white"/>
<path d="M71.7368 20.0174C71.1294 20.4556 71.1004 20.6361 71.1872 25.0953C71.274 29.3741 71.3029 29.735 71.8524 30.0443C72.3152 30.3278 72.5755 30.3278 73.154 30.07L73.8771 29.735L73.9638 25.1211C74.0506 20.6361 74.0217 20.4556 73.4143 20.0174C73.0672 19.7855 72.6912 19.5793 72.5755 19.5793C72.4598 19.5793 72.0838 19.7855 71.7368 20.0174Z" fill="white"/>
<path d="M90.4176 0.55635C89.9571 1.07187 89.8914 3.80411 89.8914 24.9919C89.8914 50.9998 89.8256 49.9945 91.7002 49.9945C93.5749 49.9945 93.5091 51.0256 93.5091 24.8115C93.5091 3.31437 93.4433 0.762557 92.9829 0.401695C92.2593 -0.191151 91.0096 -0.113823 90.4176 0.55635Z" fill="white"/>
<path d="M130.904 0.452575C130.378 0.890765 130.345 2.95284 130.345 24.8881C130.345 50.9991 130.279 49.9938 132.154 49.9938C134.028 49.9938 133.962 50.9991 133.962 24.9912C133.962 3.80344 133.897 1.0712 133.436 0.555678C132.844 -0.140271 131.627 -0.191823 130.904 0.452575Z" fill="white"/>
<path d="M80.4193 12.1553C79.8602 12.5935 79.8602 37.3899 80.4193 37.8281C80.9784 38.2663 82.1953 38.2148 82.7873 37.725C83.2478 37.3642 83.3136 35.8691 83.3136 25.0948C83.3136 17.1301 83.182 12.6708 82.9847 12.3358C82.59 11.7687 81.0442 11.6656 80.4193 12.1553Z" fill="white"/>
<path d="M140.869 12.3358C140.672 12.6708 140.54 17.1301 140.54 25.0948C140.54 35.8691 140.606 37.3642 141.066 37.725C141.658 38.2148 142.875 38.2663 143.434 37.8281C143.994 37.3899 143.994 12.5935 143.434 12.1553C142.81 11.6656 141.264 11.7687 140.869 12.3358Z" fill="white"/>
<path d="M100.646 13.5985C100.153 14.0367 100.087 15.1966 100.087 25.043C100.087 35.3276 100.12 36.0235 100.679 36.4102C101.402 36.9257 102.422 36.9772 102.981 36.5391C103.54 36.1009 103.54 13.882 102.981 13.4439C102.389 12.9799 101.238 13.0572 100.646 13.5985Z" fill="white"/>
<path d="M120.873 13.4444C120.314 13.8826 120.314 36.1014 120.873 36.5396C121.465 37.0036 122.616 36.9262 123.208 36.3849C123.701 35.9467 123.767 34.7868 123.767 24.9147C123.767 15.2745 123.701 13.9084 123.241 13.5475C122.649 13.0577 121.432 13.0062 120.873 13.4444Z" fill="white"/>
<path d="M111.006 19.9913C110.315 20.3779 110.282 20.5326 110.282 24.966C110.282 29.8634 110.381 30.147 111.927 30.147C113.473 30.147 113.571 29.8634 113.571 24.966C113.571 20.5326 113.538 20.3779 112.848 19.9913C112.453 19.7593 112.026 19.5789 111.927 19.5789C111.828 19.5789 111.401 19.7593 111.006 19.9913Z" fill="white"/>
<path d="M151.426 20.0174C150.736 20.4556 150.703 20.6361 150.802 25.0953C150.9 29.3741 150.933 29.735 151.558 30.0443C152.084 30.3278 152.38 30.3278 153.038 30.07L153.86 29.735L153.959 25.1211C154.058 20.6361 154.025 20.4556 153.334 20.0174C152.939 19.7855 152.512 19.5793 152.38 19.5793C152.249 19.5793 151.821 19.7855 151.426 20.0174Z" fill="white"/>
</g>
<defs>
<clipPath id="clip0_196_455">
<rect width="154" height="50" fill="white"/>
</clipPath>
</defs>
</svg>
