<svg width="20" height="15" viewBox="0 0 20 15" fill="none" xmlns="http://www.w3.org/2000/svg">
<path d="M13.2507 2.46875H12.1585C12.0054 2.46875 11.8601 2.53906 11.7663 2.65937L5.32415 10.8203L2.23509 6.90625C2.18836 6.84692 2.12879 6.79895 2.06087 6.76593C1.99294 6.73292 1.91842 6.71572 1.8429 6.71563H0.750711C0.646023 6.71563 0.58821 6.83594 0.652273 6.91719L4.93196 12.3391C5.13196 12.5922 5.51634 12.5922 5.7179 12.3391L13.3491 2.66875C13.4132 2.58906 13.3554 2.46875 13.2507 2.46875Z" fill="#597EF7" stroke="#597EF7"/>
<mask id="mask0_9_32" style="mask-type:luminance" maskUnits="userSpaceOnUse" x="8" y="0" width="11" height="15">
<path d="M19 0.5H8V14.5H19V0.5Z" fill="white"/>
</mask>
<g mask="url(#mask0_9_32)">
<path d="M18.2507 2.46875H17.1585C17.0054 2.46875 16.8601 2.53906 16.7663 2.65937L10.3241 10.8203L7.23509 6.90625C7.18836 6.84692 7.12879 6.79895 7.06087 6.76593C6.99294 6.73292 6.91842 6.71572 6.8429 6.71563H5.75071C5.64602 6.71563 5.58821 6.83594 5.65227 6.91719L9.93196 12.3391C10.132 12.5922 10.5163 12.5922 10.7179 12.3391L18.3491 2.66875C18.4132 2.58906 18.3554 2.46875 18.2507 2.46875Z" fill="#597EF7" stroke="#597EF7"/>
</g>
<path d="M7.41209 9.25471L8.95798 11.1036" stroke="#597EF7"/>
</svg>
